<svg xmlns="http://www.w3.org/2000/svg" viewBox="0 0 36 52" width="36" height="52">

  <!-- ombra -->
  <ellipse cx="18" cy="49" rx="16" ry="4" fill="rgba(0,0,0,0.28)"/>

  <!-- ═══ RUOTE ═══ -->
  <!-- ant. sx -->
  <ellipse cx="4"  cy="11" rx="5.5" ry="8.5" fill="#111"/>
  <ellipse cx="4"  cy="11" rx="4"   ry="7"   fill="#252525"/>
  <ellipse cx="4"  cy="11" rx="2.6" ry="4.6" fill="#c8c8d2"/>
  <circle  cx="4"  cy="7.4"  r="0.75" fill="#888"/>
  <circle  cx="4"  cy="14.6" r="0.75" fill="#888"/>
  <circle  cx="1.3" cy="11"  r="0.75" fill="#888"/>
  <circle  cx="6.7" cy="11"  r="0.75" fill="#888"/>
  <circle  cx="4"  cy="11"  r="1.3"  fill="#5a5a68"/>

  <!-- ant. dx -->
  <ellipse cx="32" cy="11" rx="5.5" ry="8.5" fill="#111"/>
  <ellipse cx="32" cy="11" rx="4"   ry="7"   fill="#252525"/>
  <ellipse cx="32" cy="11" rx="2.6" ry="4.6" fill="#c8c8d2"/>
  <circle  cx="32" cy="7.4"  r="0.75" fill="#888"/>
  <circle  cx="32" cy="14.6" r="0.75" fill="#888"/>
  <circle  cx="29.3" cy="11" r="0.75" fill="#888"/>
  <circle  cx="34.7" cy="11" r="0.75" fill="#888"/>
  <circle  cx="32" cy="11"  r="1.3"  fill="#5a5a68"/>

  <!-- post. sx -->
  <ellipse cx="4"  cy="41" rx="5.5" ry="8.5" fill="#111"/>
  <ellipse cx="4"  cy="41" rx="4"   ry="7"   fill="#252525"/>
  <ellipse cx="4"  cy="41" rx="2.6" ry="4.6" fill="#c8c8d2"/>
  <circle  cx="4"  cy="37.4" r="0.75" fill="#888"/>
  <circle  cx="4"  cy="44.6" r="0.75" fill="#888"/>
  <circle  cx="1.3" cy="41"  r="0.75" fill="#888"/>
  <circle  cx="6.7" cy="41"  r="0.75" fill="#888"/>
  <circle  cx="4"  cy="41"  r="1.3"  fill="#5a5a68"/>

  <!-- post. dx -->
  <ellipse cx="32" cy="41" rx="5.5" ry="8.5" fill="#111"/>
  <ellipse cx="32" cy="41" rx="4"   ry="7"   fill="#252525"/>
  <ellipse cx="32" cy="41" rx="2.6" ry="4.6" fill="#c8c8d2"/>
  <circle  cx="32" cy="37.4" r="0.75" fill="#888"/>
  <circle  cx="32" cy="44.6" r="0.75" fill="#888"/>
  <circle  cx="29.3" cy="41" r="0.75" fill="#888"/>
  <circle  cx="34.7" cy="41" r="0.75" fill="#888"/>
  <circle  cx="32" cy="41"  r="1.3"  fill="#5a5a68"/>

  <!-- ═══ SCOCCA ═══ -->
  <polygon points="9,2 27,2 35,10 35,42 27,50 9,50 1,42 1,10"
           fill="#dcb937" stroke="#8a6a00" stroke-width="0.8"/>

  <!-- pannello anteriore chiaro -->
  <polygon points="9,2 27,2 28,10 8,10" fill="#f0cc50"/>

  <!-- pannello posteriore scuro -->
  <polygon points="9,42 27,42 28,50 8,50" fill="#8a6800"/>

  <!-- striscia racing centrale -->
  <polygon points="15,2 21,2 22,50 14,50" fill="rgba(255,255,255,0.18)"/>

  <!-- ═══ SCARICHI ═══ -->
  <rect x="-2.5" y="14" width="4" height="5" fill="#7a6020" rx="1"/>
  <rect x="34.5" y="14" width="4" height="5" fill="#7a6020" rx="1"/>
  <rect x="-2.5" y="15" width="4" height="1" fill="rgba(255,160,0,0.4)" rx="0.5"/>
  <rect x="34.5" y="15" width="4" height="1" fill="rgba(255,160,0,0.4)" rx="0.5"/>

  <!-- ═══ PARABREZZA ═══ -->
  <polygon points="10,10 26,10 25,21 11,21" fill="#3c78d8"/>
  <!-- riflesso -->
  <polygon points="12,11 19,11 18,16 13,16" fill="rgba(200,235,255,0.4)"/>
  <polygon points="20,11 24,11 23,15 21,15" fill="rgba(200,235,255,0.25)"/>

  <!-- ═══ ROLL CAGE ═══ -->
  <rect x="10" y="21" width="16" height="7" fill="#18181e" rx="1.5"/>
  <line x1="14" y1="21" x2="14" y2="28" stroke="#383845" stroke-width="1.2"/>
  <line x1="22" y1="21" x2="22" y2="28" stroke="#383845" stroke-width="1.2"/>
  <line x1="10" y1="24.5" x2="26" y2="24.5" stroke="#282832" stroke-width="0.8"/>

  <!-- ═══ SEDILE ═══ -->
  <polygon points="11,28 25,28 26,42 10,42" fill="#2256b4"/>
  <polygon points="15,29 21,29 22,37 14,37" fill="#1a3e8c"/>
  <!-- profilo sedile -->
  <line x1="11" y1="33" x2="25" y2="33" stroke="#1a3e8c" stroke-width="0.8"/>

  <!-- ═══ FARI ANTERIORI ═══ -->
  <ellipse cx="12" cy="3"  rx="4.5" ry="2.2" fill="#fffce0"/>
  <ellipse cx="24" cy="3"  rx="4.5" ry="2.2" fill="#fffce0"/>
  <!-- lente interna -->
  <ellipse cx="12" cy="3"  rx="2.8" ry="1.4" fill="#ffffff"/>
  <ellipse cx="24" cy="3"  rx="2.8" ry="1.4" fill="#ffffff"/>

  <!-- ═══ LUCI DI CODA ═══ -->
  <ellipse cx="12" cy="49" rx="3.8" ry="1.9" fill="#c80000"/>
  <ellipse cx="24" cy="49" rx="3.8" ry="1.9" fill="#c80000"/>
  <ellipse cx="12" cy="49" rx="2.2" ry="1.1" fill="#ff4444"/>
  <ellipse cx="24" cy="49" rx="2.2" ry="1.1" fill="#ff4444"/>

</svg>
