<svg xmlns="http://www.w3.org/2000/svg" viewBox="0 0 124 20" width="124" height="20">
  <!-- corpo tronco -->
  <rect x="18" y="0"  width="88" height="20" fill="#623c14"/>
  <rect x="18" y="0"  width="88" height="12" fill="#945e24"/>
  <rect x="18" y="0"  width="88" height="6"  fill="#a87030"/>
  <!-- venature -->
  <line x1="22" y1="4"  x2="102" y2="4"  stroke="#462a0c" stroke-width="1"/>
  <line x1="22" y1="8"  x2="102" y2="8"  stroke="#7a4e1c" stroke-width="1"/>
  <line x1="22" y1="12" x2="102" y2="12" stroke="#462a0c" stroke-width="1"/>
  <line x1="22" y1="16" x2="102" y2="16" stroke="#7a4e1c" stroke-width="1"/>
  <!-- estremità sinistra (anelli) -->
  <ellipse cx="18" cy="10" rx="10" ry="10" fill="#41260a"/>
  <ellipse cx="18" cy="10" rx="8"  ry="8"  fill="#945e26"/>
  <ellipse cx="18" cy="10" rx="6"  ry="6"  fill="#55320e"/>
  <ellipse cx="18" cy="10" rx="4"  ry="4"  fill="#ac7432"/>
  <ellipse cx="18" cy="10" rx="2"  ry="2"  fill="#5c3812"/>
  <!-- estremità destra (anelli) -->
  <ellipse cx="106" cy="10" rx="10" ry="10" fill="#41260a"/>
  <ellipse cx="106" cy="10" rx="8"  ry="8"  fill="#945e26"/>
  <ellipse cx="106" cy="10" rx="6"  ry="6"  fill="#55320e"/>
  <ellipse cx="106" cy="10" rx="4"  ry="4"  fill="#ac7432"/>
  <ellipse cx="106" cy="10" rx="2"  ry="2"  fill="#5c3812"/>
</svg>
